<svg xmlns="http://www.w3.org/2000/svg" viewBox="0 0 533.5 544.3">
  <path fill="#4285f4" d="M533.5 278.4c0-17.4-1.6-34.1-4.6-50.4H272.1v95.3H419c-6.3 34-25 62.8-53.3 82v68h86.2c50.4-46.5 81.6-115.1 81.6-194.9z"/>
  <path fill="#34a853" d="M272.1 544.3c72.6 0 133.5-24.1 178-65.7l-86.2-68c-24.1 16.2-55.1 25.8-91.8 25.8-70.7 0-130.7-47.7-152.1-111.5H30.5v69.9c44.5 88.4 136.7 149.5 241.6 149.5z"/>
  <path fill="#fbbc04" d="M120 324.9c-10.5-31.3-10.5-65.3 0-96.6V158.4H30.5c-37.5 74.9-37.5 163.1 0 238l89.5-69.9z"/>
  <path fill="#ea4335" d="M272.1 107.7c39.5-.6 77 14.2 105.7 41.4l79.1-79.1C405.5 24.3 344.7 0 272.1 0 167.2 0 75 61.1 30.5 149.5l89.5 69.9c21.3-63.8 81.4-111.5 152.1-111.5z"/>
</svg>
